
<svg xmlns="http://www.w3.org/2000/svg" version="1.1" width="1201px" height="1186px" style="shape-rendering:geometricPrecision; text-rendering:geometricPrecision; image-rendering:optimizeQuality; fill-rule:evenodd; clip-rule:evenodd" xmlns:xlink="http://www.w3.org/1999/xlink">
<g><path style="opacity:1" fill="#00a2e8" d="M 734.5,26.5 C 791.834,27.1442 849.167,27.8109 906.5,28.5C 906.667,198.5 906.5,368.5 906,538.5C 849,509.833 792,481.167 735,452.5C 734.5,310.5 734.333,168.5 734.5,26.5 Z"/></g>
<g><path style="opacity:1" fill="#3f48cc" d="M 542.5,365.5 C 544.292,370.745 545.126,376.412 545,382.5C 545.655,413.006 546.488,443.506 547.5,474C 547.481,477.418 547.147,480.751 546.5,484C 471.589,521.372 396.756,558.872 322,596.5C 279.466,577.932 236.966,559.266 194.5,540.5C 310.561,482.136 426.561,423.803 542.5,365.5 Z"/></g>
<g><path style="opacity:1" fill="#00a2e8" d="M 549.5,365.5 C 667.701,424.434 785.701,483.6 903.5,543C 860.594,561.038 817.76,579.204 775,597.5C 701.244,560.372 627.411,523.372 553.5,486.5C 551.582,446.19 550.248,405.857 549.5,365.5 Z"/></g>
<g><path style="opacity:1" fill="#3f48cc" d="M 186.5,543.5 C 230.5,562.167 274.5,580.833 318.5,599.5C 318.833,674.17 318.5,748.836 317.5,823.5C 274.083,849.626 230.583,875.626 187,901.5C 186.5,782.167 186.333,662.834 186.5,543.5 Z"/></g>
<g><path style="opacity:1" fill="#00a2e8" d="M 904.5,547.5 C 905.833,605.996 906.5,664.83 906.5,724C 906.167,782.833 905.833,841.667 905.5,900.5C 862.833,875.5 820.167,850.5 777.5,825.5C 776.5,750.836 776.167,676.17 776.5,601.5C 819.476,584.069 862.142,566.069 904.5,547.5 Z"/></g>
<g><path style="opacity:1" fill="#3f48cc" d="M 318.5,828.5 C 394.714,865.607 470.714,903.273 546.5,941.5C 546.653,988.497 545.82,1035.5 544,1082.5C 426.089,1023.46 308.256,964.295 190.5,905C 233.396,879.726 276.062,854.226 318.5,828.5 Z"/></g>
<g><path style="opacity:1" fill="#00a2e8" d="M 771.5,829.5 C 772.873,829.343 774.207,829.51 775.5,830C 818.167,855 860.833,880 903.5,905C 785.833,963.833 668.167,1022.67 550.5,1081.5C 550.361,1034.17 551.194,986.837 553,939.5C 625.972,902.931 698.805,866.264 771.5,829.5 Z"/></g>
</svg>
